<?xml version="1.0" encoding="UTF-8"?><svg id="_レイヤー_2" xmlns="http://www.w3.org/2000/svg" width="510.61" height="79.99" viewBox="0 0 510.61 79.99"><defs><style>.cls-1{fill:#231815;}</style></defs><g id="_レイヤー_1-2"><path class="cls-1" d="M107.68,3.98v72.04c8.61-.58,17.23-1.11,25.85-1.59V3.98h-25.85Z"/><path class="cls-1" d="M200.72,4.65v46.18l-31.43-46.18h-24.08v69.13c8.08-.44,16.17-.84,24.25-1.2v-30.3l20.09,29.45c11.83-.47,23.65-.86,35.48-1.18V4.65h-24.31Z"/><path class="cls-1" d="M233.97,4.65v20.61h26.31v44.52c8.6-.15,17.19-.26,25.79-.31V31.26c0-3.31,2.69-6,6-6h20.3V4.65h-78.4Z"/><path class="cls-1" d="M317.49,3.98v65.4c8.62.01,17.23.06,25.85.16V3.98h-25.85Z"/><path class="cls-1" d="M416.77,4.65l-18.54,55.06-18.79-55.06h-26.96l24.71,65.44c13.68.28,27.36.67,41.03,1.15l24.73-66.59h-26.18Z"/><path class="cls-1" d="M483.86,4.65h-28.14l-25.2,67.05c26.71,1.03,53.41,2.41,80.09,4.14l-26.75-71.19ZM460.36,57.29l9.11-30.01,9.22,30.01h-18.33Z"/><path class="cls-1" d="M69.27.45v65.24c0,1.98-1.6,3.58-3.58,3.58H14.31c-1.97,0-3.58-1.6-3.58-3.58V14.31c0-1.98,1.61-3.58,3.58-3.58h45.69V0H14.31C6.41,0,0,6.4,0,14.31v51.37c0,7.91,6.41,14.31,14.31,14.31h51.38c7.91,0,14.31-6.4,14.31-14.31V14.31c0-6.67-4.56-12.27-10.73-13.86Z"/></g></svg>